PathFileType	4	(X/Y/Z)	./resultDataOpenSim/trcMotMarkerGrf/sub10/qtm-15-02.trc
DataRate	CameraRate	NumFrames	NumMarkers	Units	OrigDataRate	OrigDataStartFrame	OrigNumFrames
250.000000	250.000000	8	24	m	250.000000	59	469
Frame#	Time	L.Toe.Tip			R.Toe.Tip			L.Ankle.Lat			R.Ankle.Lat			L.Ankle.Med			R.Ankle.Med			L.Heel			R.Heel			L.Knee.Lat			R.Knee.Lat			L.Knee.Med			R.Knee.Med			L.Thigh.Upper			R.Thigh.Upper			L.ASIS			R.ASIS			V.Sacral			L.Acromium			R.Acromium			C7			L.Elbow			R.Elbow			L.Wrist.Lat			R.Wrist.Lat
		X1	Y1	Z1	X2	Y2	Z2	X3	Y3	Z3	X4	Y4	Z4	X5	Y5	Z5	X6	Y6	Z6	X7	Y7	Z7	X8	Y8	Z8	X9	Y9	Z9	X10	Y10	Z10	X11	Y11	Z11	X12	Y12	Z12	X13	Y13	Z13	X14	Y14	Z14	X15	Y15	Z15	X16	Y16	Z16	X17	Y17	Z17	X18	Y18	Z18	X19	Y19	Z19	X20	Y20	Z20	X21	Y21	Z21	X22	Y22	Z22	X23	Y23	Z23	X24	Y24	Z24

59	0.232	-1.2654285	0.079025881	-0.14786234	-0.76934344	0.039784128	0.045367478	-1.2854599	0.21409721	-0.18242162	-0.91069206	0.051442293	0.084293096	-1.2594773	0.21624373	-0.10294511	-0.89623482	0.082540068	0.0028890529	-1.3390726	0.25387845	-0.13914576	-0.96113786	0.028278633	0.035836926	-0.97768092	0.43233431	-0.19406219	-0.92012488	0.45314625	0.13125329	-0.96979861	0.40116265	-0.074727928	-0.92244163	0.45555282	0.0017083188	-0.97791825	0.81533372	-0.21555107	-0.95322252	0.8753116	0.16700267	-0.91492716	0.92725101	-0.15584104	-0.89040834	0.96028895	0.08459164	-1.1002372	0.96262579	-0.020853025	-0.9263854	1.420125	-0.18245986	-0.978464	1.4121581	0.13410853	-1.0337873	1.4460132	-0.03646826	-0.98970379	1.0892252	-0.29502639	-1.1196573	1.1003997	0.18478276	-0.78597975	0.94741113	-0.2420653	-1.0625095	0.89267187	0.308992
60	0.236	-1.2488934	0.079126663	-0.14835261	-0.76936939	0.039780752	0.045393474	-1.2717509	0.21399341	-0.18178959	-0.910631	0.051482491	0.084254336	-1.2469039	0.2160494	-0.10200031	-0.89622478	0.082612802	0.0029275547	-1.3265831	0.25271585	-0.13821331	-0.96110656	0.028284347	0.035782976	-0.96531303	0.43364834	-0.19348841	-0.91834098	0.45327751	0.13162045	-0.95756242	0.4026158	-0.074200553	-0.92009223	0.45535063	0.0017558305	-0.97162986	0.8166092	-0.21519831	-0.94999402	0.87497156	0.16698662	-0.90964115	0.92845198	-0.15585737	-0.88582306	0.96062311	0.085318685	-1.0946703	0.96335179	-0.020535929	-0.9206253	1.4208502	-0.18202456	-0.9717455	1.4129348	0.13469774	-1.027675	1.4469204	-0.03569655	-0.98593257	1.0903436	-0.29441939	-1.1120781	1.1004702	0.18662172	-0.78363965	0.94647943	-0.24253683	-1.0524106	0.89274045	0.30959902
61	0.24	-1.2320626	0.079039188	-0.14878437	-0.76941348	0.039785291	0.045433592	-1.2578784	0.21347239	-0.18114999	-0.91049147	0.051501791	0.084182675	-1.2337348	0.21556033	-0.10117439	-0.89623039	0.08268964	0.0029748003	-1.3139839	0.25126019	-0.13711315	-0.96107981	0.028287486	0.035738108	-0.95312152	0.43503623	-0.19284304	-0.91658699	0.45342109	0.1319925	-0.94532231	0.40413306	-0.073676989	-0.91824396	0.45504768	0.0018885033	-0.9654545	0.81784264	-0.21485627	-0.94621119	0.87475733	0.16715555	-0.90398441	0.92963531	-0.15575047	-0.88093737	0.96096538	0.086092974	-1.0891564	0.9641381	-0.020232779	-0.9148797	1.4215483	-0.18159615	-0.9651082	1.4136616	0.13529025	-1.0215666	1.4478084	-0.034973109	-0.98210302	1.0914739	-0.29379072	-1.1042792	1.1006785	0.18920001	-0.78139048	0.94553004	-0.24300333	-1.0421951	0.89278142	0.31015474
62	0.244	-1.2149404	0.078778214	-0.1491913	-0.76947966	0.039796821	0.045484559	-1.2438983	0.21257991	-0.18050025	-0.91031626	0.05148063	0.084088947	-1.2200571	0.21482455	-0.10045383	-0.89625639	0.082766897	0.0030254011	-1.3010855	0.24939262	-0.13607634	-0.96107473	0.02829345	0.035718328	-0.94098924	0.436532	-0.19215951	-0.91487301	0.45356673	0.13235355	-0.93306627	0.40571066	-0.073141685	-0.91667535	0.45469905	0.0020663421	-0.95937804	0.81903308	-0.21450917	-0.94184585	0.87468284	0.16751006	-0.89821573	0.93078008	-0.15561094	-0.87587108	0.96130527	0.086891047	-1.0837023	0.96496135	-0.019999092	-0.90914848	1.4222377	-0.1811678	-0.95860113	1.414349	0.13590059	-1.0154566	1.4486765	-0.034288069	-0.97830428	1.0926061	-0.29320348	-1.0961668	1.1009644	0.19238235	-0.77923081	0.94455676	-0.2434589	-1.0319183	0.89281016	0.31066598
63	0.248	-1.1975404	0.078365055	-0.1495851	-0.76956873	0.039813664	0.045546039	-1.2298546	0.21138089	-0.17982853	-0.91019559	0.051419862	0.084003998	-1.2060377	0.21384952	-0.099784399	-0.89630799	0.082840916	0.0030772376	-1.2879017	0.24709109	-0.13514444	-0.96109598	0.028299756	0.035718214	-0.9288247	0.43812465	-0.19146098	-0.91319217	0.45371668	0.13270194	-0.92079148	0.40734024	-0.072581484	-0.91511046	0.45437756	0.0022601582	-0.95335926	0.82019084	-0.21415305	-0.93719593	0.87468636	0.16797072	-0.89264714	0.93189414	-0.1555436	-0.87077402	0.96162248	0.087678581	-1.0783411	0.9657442	-0.019979643	-0.90345064	1.4229308	-0.1807488	-0.95218841	1.4150159	0.13651627	-1.0093432	1.4495215	-0.033630143	-0.97458965	1.0937301	-0.29266941	-1.0878357	1.1012145	0.19566176	-0.77715442	0.94354913	-0.24389796	-1.0216128	0.89285403	0.31114641
64	0.252	-1.1798394	0.077838893	-0.14995282	-0.76967945	0.039834297	0.045620662	-1.2157324	0.20992525	-0.17913085	-0.9101929	0.05135785	0.083956873	-1.1917982	0.21262688	-0.099125453	-0.89639025	0.082909739	0.0031282183	-1.2745255	0.24438754	-0.13426387	-0.9611476	0.028298446	0.035744244	-0.91669281	0.43976983	-0.19077608	-0.91152366	0.45386981	0.133039	-0.90852263	0.4090077	-0.07199232	-0.91345011	0.45412102	0.0024571837	-0.94733817	0.82132818	-0.21379168	-0.93250067	0.87472084	0.16847223	-0.88729403	0.93301488	-0.15554874	-0.86572468	0.9619059	0.088434902	-1.07311	0.96643355	-0.020280227	-0.89783344	1.4236243	-0.18035752	-0.94580571	1.4156648	0.13711065	-1.0032282	1.4503415	-0.03299181	-0.97093753	1.0948465	-0.29214369	-1.0794238	1.1013008	0.19844572	-0.77515361	0.94250592	-0.2443168	-1.0112622	0.89292758	0.31160511
65	0.256	-1.1617809	0.077243304	-0.15027063	-0.76980998	0.039859349	0.045713581	-1.2014375	0.20823444	-0.17842552	-0.91032212	0.05134278	0.08396122	-1.1774012	0.21115471	-0.098450932	-0.89651018	0.082972425	0.0031740926	-1.2610092	0.24131857	-0.13340144	-0.9612469	0.028281734	0.035837696	-0.90470363	0.44143469	-0.19011185	-0.90984782	0.45401417	0.13335142	-0.89632647	0.41068927	-0.071383993	-0.91176814	0.45392548	0.0026541402	-0.9412807	0.82244335	-0.21343933	-0.92783496	0.87477676	0.16898889	-0.88194505	0.93415801	-0.15554192	-0.86073316	0.96215879	0.089157763	-1.0679534	0.96706762	-0.020731729	-0.8923177	1.4243019	-0.1799979	-0.93942586	1.4162842	0.13767406	-0.99711494	1.4511343	-0.032371749	-0.96730922	1.0959612	-0.29160594	-1.0709439	1.1011575	0.2004652	-0.77322244	0.94143578	-0.24471421	-1.0008406	0.89302417	0.31203929
66	0.26	-1.1433561	0.076592176	-0.15051155	-0.76995604	0.039893383	0.04582989	-1.1868777	0.20630335	-0.17773279	-0.91056732	0.051393627	0.084013864	-1.1628736	0.2094475	-0.097742311	-0.89667361	0.083027765	0.0032101649	-1.2473452	0.23791233	-0.13255912	-0.96140561	0.028249617	0.036028719	-0.8928598	0.44312023	-0.18944507	-0.90816284	0.45413452	0.13361444	-0.88428362	0.41236193	-0.070772802	-0.91013612	0.45378456	0.0028415476	-0.93521581	0.82350884	-0.21312567	-0.92317093	0.87485823	0.16951637	-0.87647375	0.93529663	-0.15545972	-0.85577816	0.96238969	0.089856713	-1.0627426	0.96771661	-0.021000656	-0.88682956	1.4249477	-0.17964332	-0.9330779	1.4168668	0.13822792	-0.99100714	1.4518943	-0.031772107	-0.96369435	1.0970752	-0.29108436	-1.0624368	1.1008535	0.20190435	-0.77135439	0.940347	-0.24509299	-0.99034351	0.89313132	0.31244071
